/* XPM */
static char *result[] = {
/* columns rows colors chars-per-pixel */
"32 32 110 2 ",
"   c #3F3728",
".  c #3F3729",
"X  c #3F3829",
"o  c #403829",
"O  c #473F31",
"+  c #474032",
"@  c #4A4234",
"#  c #4F493D",
"$  c #524B3F",
"%  c #544E42",
"&  c #565045",
"*  c #5A5347",
"=  c #5C564A",
"-  c #5E584C",
";  c #625B4F",
":  c #635E53",
">  c #666155",
",  c #696357",
"<  c #64645A",
"1  c #6C665B",
"2  c #6E685C",
"3  c #726C60",
"4  c #746E62",
"5  c #767164",
"6  c #797367",
"7  c #7C766A",
"8  c #7F796D",
"9  c #7A7B75",
"0  c #817B6F",
"q  c #847E72",
"w  c #7C8C6F",
"e  c #7EB97A",
"r  c #7EBA7A",
"t  c #898A57",
"y  c #8C8A5F",
"u  c #8F8B6B",
"i  c #869B62",
"p  c #889A67",
"a  c #8A9D6C",
"s  c #868174",
"d  c #898477",
"f  c #878C77",
"g  c #888977",
"h  c #8C867A",
"j  c #8E897C",
"k  c #918E70",
"l  c #918C7F",
"z  c #849577",
"x  c #8D9170",
"c  c #8B907B",
"v  c #88A167",
"b  c #86A76A",
"n  c #83A279",
"m  c #8CA17E",
"M  c #87AD7E",
"N  c #85B475",
"B  c #83B27C",
"V  c #83BB7D",
"C  c #80BD7C",
"Z  c #81C07D",
"A  c #82C07E",
"S  c #84C47F",
"D  c #818682",
"F  c #838884",
"G  c #888C89",
"H  c #948E82",
"J  c #969280",
"K  c #969184",
"L  c #999487",
"P  c #939E84",
"I  c #9C978A",
"U  c #9E998C",
"Y  c #959D9C",
"T  c #A19C8F",
"R  c #A49F92",
"E  c #8CA881",
"W  c #94A485",
"Q  c #94AB86",
"!  c #99A88B",
"~  c #8BB283",
"^  c #A5A193",
"/  c #A9A497",
"(  c #ACA79A",
")  c #AEA99C",
"_  c #B1AC9F",
"`  c #9BA5A5",
"'  c #9FA9AA",
"]  c #A0ABAC",
"[  c #B4AFA2",
"{  c #B6B1A4",
"}  c #B9B4A7",
"|  c #BBB6A9",
" . c #BEB9AC",
".. c #A3AEB0",
"X. c #A4B0B1",
"o. c #ADBBBE",
"O. c #85C781",
"+. c #88CA84",
"@. c #8EC388",
"#. c #8BCD88",
"$. c #8DCF8A",
"%. c #90CD8C",
"&. c #90D18D",
"*. c #95CE90",
"=. c #94D391",
"-. c #96D693",
";. c #97D794",
":. c #AFBCC0",
">. c #B5C3C8",
",. c #B9C6CA",
/* pixels */
"r S O.+.%.$.O.O.S C C C S O.@.%.O.S O.Z Z r Z O.O.$.$.+.O.S S C ",
"S S +.=.=.=.&.+.+.O.S S S @.-.*.%.&.S S S O.O.O.&.=.;.=.$.O.O.S ",
"O.O.O.O.#.&.=.@.~ B V M f U ! j g Q E J ! ~ B r V +.&.=.-.=.%.O.",
"O.%.&.+.S n z c l l P K ) } } [ / L U } [ W P j f m z B $.+.O.O.",
"=.=.$.B c K K T / { | _ |  .} }  .{ |  .| | { / R L K f r S S +.",
"$.O.S w K U _ | { {  . .{ { { { | ) [  . . .{ [ } _ T H z %.+.+.",
"Z S n L / L R }  .{ } } { [ } | [ { { { | { { [ } R K j L E @.O.",
"C r K _ K l ) }  .} _  . .} ) [ { |  . . .| |  ./ H 7 j { J S Z ",
"S Q } ^ h K ) { } } R ( _ T K _  . .{ _  . . ._ L K 0 5 R } ! S ",
"S W R K q _ _ l I T H l l 0 6 H R ^ T j T [ [ U K ( ) q H R Q O.",
"S p l s I } } h 0 H l d l J 0 0 K K s 7 l T I h l } | I q l a r ",
"Z N x s K R I 5 s R 7 0 l K 0 3 7 2 > 3 6 s j 6 0 L R H s x N S ",
"S O.b k d l q 5 l K 0 ; ; , $ o o o = 6 3 3 3 4 6 d J h u p O.O.",
"S S i k K h l q 7 h 2 o o o     o o o $ ; 2 4 6 q j d K k t v S ",
"i a J l l d K H s l $ o o o o   o o o o o = 2 0 K K d j j k y t ",
"k J K h 7 l L h l 0 o o o   o o o o o o o + 4 l h H s d L L J k ",
"d K l q H h j 0 K 5 o   o o   o o o o o   o 3 K 0 h J d s l K H ",
"0 l h K L q 7 0 h 2 o     o o o o o o o   o = d 0 I l 0 0 q l 0 ",
"7 7 s L h 7 h K q = o   o o   o o     o o   O , 0 h 0 q K d 6 7 ",
"q j 0 j 0 h K I h $       o o o o o o o o o $ 0 0 7 0 K K H q j ",
"K I l 0 h L L l 0 $ o o o o o o o   o       , K q q K K K q K L ",
"I K K d h l s 0 3 @ o o   o X o o o o o     , K l q K d 0 0 h K ",
"l L I H 0 0 7 3 3 +   o o o o X o o o o   o = l L q 0 0 4 4 0 5 ",
"0 s K d 3 6 7 2 6 $     . o o o o   o     o = h l 4 4 0 4 4 h 0 ",
"3 7 0 4 ; : , 3 K 4 X . X X o o o o o o o o @ 4 0 : : 2 : j L j ",
"7 7 7 2 3 3 ; 2 s : o . o o o o o o   o o o O 2 4 2 3 ; ; q j K ",
"7 2 : 1 6 0 6 ; : O . . o     o       o o   O : , 6 0 0 1 : 0 0 ",
"4 3 , = 2 6 3 ; % o   .     o @ O o       o : 2 ; : 4 6 : & 1 6 ",
"% 2 6 = ; ; ; % @ . . % : < ` ....` < : % o 2 8 : * ; ; ; $ ; : ",
"% ; : % % ; * $ : F D ' >.:.>.>.:.>.:.>.] F 9 : * % - ; $ # ; ; ",
": * & : : & % < X.>.>.>.A A A e e e e e >.>.:.9 = < % * * 1 $ * ",
"' G F ..] F F ] ,.O.O.O.O.O.A e e e A A A A O.:.Y :.G D Y o.G F "
};
