/* XPM */
static char *_e033854b9ff4de49c57e7835d0c39688fk8m56ruJoa3M6G[] = {
/* columns rows colors chars-per-pixel */
"32 32 114 2 ",
"   c #100101",
".  c #181313",
"X  c #171910",
"o  c #330104",
"O  c #370104",
"+  c #2B1910",
"@  c #2F1B13",
"#  c #352618",
"$  c #35271A",
"%  c #37271B",
"&  c #38291C",
"*  c #2A2424",
"=  c #2C2525",
"-  c #2E2727",
";  c #252E26",
":  c #2D2828",
">  c #382627",
",  c #312A2A",
"<  c #382E2E",
"1  c #3C3A25",
"2  c #3F3C28",
"3  c #363730",
"4  c #393232",
"5  c #3D3737",
"6  c #4A0205",
"7  c #461114",
"8  c #411A13",
"9  c #541316",
"0  c #54181B",
"q  c #551C1F",
"w  c #591A1D",
"e  c #670A10",
"r  c #611014",
"t  c #6E151A",
"y  c #77171C",
"u  c #412218",
"i  c #48271C",
"p  c #56241B",
"a  c #443E3E",
"s  c #6A3739",
"d  c #4A4444",
"f  c #5C4344",
"g  c #4F554E",
"h  c #5F5C5C",
"j  c #766666",
"k  c #7B7272",
"l  c #950D15",
"z  c #9C0E15",
"x  c #9F0E17",
"c  c #A70A14",
"v  c #AB0A15",
"b  c #B30B16",
"n  c #B60B17",
"m  c #B90C17",
"M  c #BC0C17",
"N  c #BD0D19",
"B  c #C30D19",
"V  c #C50D19",
"C  c #C50F1B",
"Z  c #CE0D1A",
"A  c #D10E1B",
"S  c #D60F1B",
"D  c #D0101C",
"F  c #DE101D",
"G  c #E0101D",
"H  c #E6111E",
"J  c #E9121E",
"K  c #ED121E",
"L  c #F2131F",
"P  c #F6141F",
"I  c #F51320",
"U  c #F71420",
"Y  c #FA1420",
"T  c #FC1521",
"R  c #847071",
"E  c #847575",
"W  c #857B7B",
"Q  c #8B7C7C",
"!  c #897F7F",
"~  c #679563",
"^  c #6A9866",
"/  c #70A56C",
"(  c #71A66E",
")  c #74AE71",
"_  c #77AE71",
"`  c #75AF72",
"'  c #7AAE71",
"]  c #7BB374",
"[  c #7FB27B",
"{  c #7EB97A",
"}  c #7FBC7B",
"|  c #81B67E",
" . c #83BA7C",
".. c #82C07E",
"X. c #82C37E",
"o. c #908585",
"O. c #978787",
"+. c #938F8F",
"@. c #9B8B8B",
"#. c #9F8C8C",
"$. c #9D9898",
"%. c #A39595",
"&. c #A39898",
"*. c #A99B9B",
"=. c #AEA4A4",
"-. c #AEADAD",
";. c #B1A3A3",
":. c #B1AAAA",
">. c #B8B2B2",
",. c #85C781",
"<. c #8ECF8A",
"1. c #97D794",
"2. c #C3C0C0",
"3. c #DCD8D8",
/* pixels */
"1.,.,.,.,.,.<.<.<.<.<.<.,...{ { ........,.,.,.<.1.1.1.1.1.1.1.1.",
",.,.,.<.<.<.<.<.<.,.,.....{ { ........,.,.,.<.<.1.1.1.1.1.1.1.<.",
",.,.<.<.<.<.<.<.,.......{ { { { { ....,.,.,.<.1.1.1.1.1.1.<.,.,.",
",.<.,.,.,.,.,.,.......{ { { { { ....,.,.,.,.<.1.1.1.1.1.<.,.,.,.",
",.,.,...........{ { { { { { { ....,.,.,.,.<.1.1.1.1.1.<.,.,...,.",
"........{ ....{ { { { ..........,.,.,.,.<.<.1.1.1.1.<.,.,.......",
"{ ..{ { ....{ { { ........,.,.,.,.,.,.,.<.1.1.1.<.<.,.,.....{ { ",
"..{ { { ..{ { { ........,.,.,.,.,.,.<.<.1.<.1.<.<.,.,.,...{ { { ",
"{ { { ......{ { ......,.,.,...,.,.<.<.1.1.1.<.<.,.,.,...........",
"{ { ......{ { ....,.,.,.....,.,.<.1.1.<.1.<.<.,.,.,...........{ ",
"{ { ......{ ....,.,.,...X.1 $ $ $ &  .1.<.<.,.,...............{ ",
"{ ............,.,.,.,.1 i x m n M v p $ ] ,.,...........,...{ { ",
"{ ..........,.,.,.,.1 l M J U U P L V v u ]  .,.,...,.,.........",
"{ ........,.,.,.,.,.8 V L Y Y T T Y P F 6 ] ,.,.,.,.,.,.,.....{ ",
"{ { ......,.,.,.,.2 x K Y T T T T Y P Y n u  .,.,.<.,.,.....{ { ",
"{ ......,.,.,.<.1.@ B U T Y H G G Y Y Y F O _ ,.<.,.,.....{ { { ",
",.{ ,.{ ,.,.,.1.,.+ b U Y S y w r D U T Z o _ <.,.,.....{ { { { ",
",.,.{ ,.,.,.<.,.,.X 9 C Z t #.:.R q N D e   ) ,.........{ { { ..",
"[ ,.,.,.,.<.,.,.,.; k s q > ! &.Q < 7 0 f . _ ......{ { { { { ..",
",.,.,.,.,.,.,.,. .( g $.>.-.h a d +.Q j 3 ~ } ..{ { { { { { ....",
"{ ,.,.,.,.,.[ ,.,.,.; W =.3.2.-.o.*.@.E * ( ..{ { { { { { { ....",
",.,.,.,.,.,.,.,.,.<.' 3 5 o.;.%.O.Q a = ~ } ..{ ..{ { { { { ....",
",.,.{ ,.,.,.,.<.<.<.1.,.| 3 , - : * ^ / X.......{ { { { { ......",
"[ { ,.,.,.,.<.<.1.1.1.1.1.| [ _ ] /  .,.........{ { { { { ......",
",.{ ,.,.,.<.<.1.1.1.1.1.1.<.<.<.,.,.,.........{ { { { { ........",
",.,.,.,.<.<.1.1.1.1.1.1.<.<.<.,.,.,.........{ { { { { ..........",
",.,.,.<.1.1.1.1.1.1.<.<.<.<.,.,.,.........{ { { { { ..........,.",
",.<.<.1.1.<.1.1.<.<.<.,.,.,.,.........{ { { { { { ........,.,.,.",
"<.<.1.1.<.<.<.<.<.,.,.,.,.......{ { { { { { { { ......,.,.,.,.,.",
"<.<.1.1.<.<.,.,.,.,.,.........{ { { { { { { ......,.,.,.,.,.<.<.",
"1.1.1.<.<.,.,.,...............{ { { { { ......,.,.,.,.,.<.<.<.<.",
"1.1.<.<.,.,.,.,.,.,.,.,.,.,...{ { { ........,.,.,.<.1.1.1.1.1.1."
};
