/* XPM */
static char *result[] = {
/* columns rows colors chars-per-pixel */
"32 32 6 1 ",
"  c #95D891",
". c #83C87E",
"X c #8CD087",
"o c #80C17B",
"O c #7CBA77",
"+ c white",
/* pixels */
" .....XXXXXX.oOOoooo...X        ",
"...XXXXXX..ooOOoooo...XX       X",
"..XXXXXX.oooOOOOOoo...X      X..",
".X......oooOOOOOoo....X     X...",
"...oooooOOOOOOOoo....X     X..o.",
"ooooOooOOOOooooo....XX    X..ooo",
"OoOOooOOOoooo.......X   XX..ooOO",
"oOOOoOOOoooo......XX X XX...oOOO",
"OOOoooOOooo...o..XX   XX...ooooo",
"OOoooOOoo...oo..X  X XX...oooooO",
"OOoooOoo...o...X XX XX..oooooooO",
"Ooooooo.....XXXXXXXX...ooooo.oOO",
"Oooooo.....XX    XX...o..o..oooo",
"Ooooo.....X    XXX...........ooO",
"OOooo....X  XXXXXX....X..X..ooOO",
"Oooo...X  XXX..XX....X..X..ooOOO",
"oooo... ......X.....XX.X..ooOOOO",
"ooo...X......X.....X X..ooooOOOo",
"o....X...oo.....XXXXX..oooOOOOOo",
"o.......oo...XX XX X..ooOOOOOOoo",
"o.....ooo..XXX    X..ooOOOOOOOoo",
"...o.o...XXX      ...ooOoOOOOOoo",
"ooo....XXX      XX...oooOOOOOooo",
"ooo...XX       XX...ooooOOOOOooo",
"oo...XX      XXX...ooooOOOOOoooo",
"....XX      XXX...ooooOOOOOooooo",
"...X      XXXX...ooooOOOOOooooo.",
".XX  X  XXX....ooooOOOOOOoooo...",
"XX  XXXXX....oooOOOOOOOOooo.....",
"XX  XX.....ooooOOOOOOOooo.....XX",
"   XX...oooooooOOOOOooo.....XXXX",
"  XX...o......oOOOoooo...X      "
};
