/* XPM */
static char *_bd6ffd6597f44cbbcbf8d4932c9f04fydt83Vvs0Beb2rbd[] = {
/* columns rows colors chars-per-pixel */
"32 32 179 2 ",
"   c #030101",
".  c #0B0706",
"X  c #0F0B09",
"o  c #120C0A",
"O  c #1A0D0C",
"+  c #1D110E",
"@  c #1E1414",
"#  c #121910",
"$  c #1B1C13",
"%  c #251813",
"&  c #241B16",
"*  c #251A18",
"=  c #2D1D1C",
"-  c #1E2D1E",
";  c #252217",
":  c #232C1E",
">  c #2D281B",
",  c #33231B",
"<  c #2F1820",
"1  c #292926",
"2  c #362420",
"3  c #3D2A23",
"4  c #382729",
"5  c #343325",
"6  c #3B2431",
"7  c #322C30",
"8  c #2F3030",
"9  c #373936",
"0  c #422C26",
"q  c #442C2A",
"w  c #47322D",
"e  c #492C37",
"r  c #572D39",
"t  c #4D3433",
"y  c #47383D",
"u  c #513435",
"i  c #543A35",
"p  c #543A3C",
"a  c #5A3D39",
"s  c #36423F",
"d  c #5E443B",
"f  c #664639",
"g  c #6B4B3B",
"h  c #734B39",
"j  c #383D46",
"k  c #4C3A43",
"l  c #6D3A4C",
"z  c #663950",
"x  c #3B4942",
"c  c #565057",
"v  c #694B4B",
"b  c #7E4947",
"n  c #685349",
"m  c #785744",
"M  c #64595A",
"N  c #795C54",
"B  c #7C6C49",
"V  c #78686E",
"C  c #70757F",
"Z  c #823D5C",
"A  c #903D62",
"S  c #805A4D",
"D  c #865E50",
"F  c #8F6C4C",
"G  c #95674C",
"H  c #8B6B54",
"J  c #926A55",
"K  c #8C7658",
"L  c #99705A",
"P  c #8E4568",
"I  c #944569",
"U  c #985565",
"Y  c #9F4D74",
"T  c #AA4975",
"R  c #B34B7B",
"E  c #AA547B",
"W  c #8D786E",
"Q  c #996878",
"!  c #A4656A",
"~  c #A47964",
"^  c #AB7C61",
"/  c #B16F76",
"(  c #638F5E",
")  c #689762",
"_  c #729A6A",
"`  c #7F9C73",
"'  c #6EA26B",
"]  c #72A46C",
"[  c #73A86E",
"{  c #6FA075",
"}  c #76A672",
"|  c #76AC72",
" . c #7FAC76",
".. c #77B273",
"X. c #7DB679",
"o. c #7EB97A",
"O. c #9E806E",
"+. c #A7826A",
"@. c #AA8876",
"#. c #B8917C",
"$. c #81B377",
"%. c #81BB7C",
"&. c #82C07E",
"*. c #46598C",
"=. c #586898",
"-. c #6D7682",
";. c #626F9B",
":. c #4E6AA2",
">. c #5B7DB6",
",. c #BD5686",
"<. c #8E6585",
"1. c #9B6884",
"2. c #B57D88",
"3. c #B47294",
"4. c #C65587",
"5. c #D0548A",
"6. c #E55D99",
"7. c #CF6B9A",
"8. c #D1689A",
"9. c #CC719E",
"0. c #C87CA7",
"q. c #E872A7",
"w. c #798596",
"e. c #79B381",
"r. c #88868F",
"t. c #9D8F8F",
"y. c #848C9A",
"u. c #B89791",
"i. c #85BC82",
"p. c #9897AA",
"a. c #B986A9",
"s. c #AD98B1",
"d. c #96A4B8",
"f. c #B3A6A6",
"g. c #B6A8B9",
"h. c #BDB4BA",
"j. c #C49292",
"k. c #D6A698",
"l. c #D5AE99",
"z. c #C685AD",
"x. c #C38BAC",
"c. c #D189AA",
"v. c #C190AF",
"b. c #C696B4",
"n. c #D797BC",
"m. c #E994BA",
"M. c #DCB8A5",
"N. c #E8BEA8",
"B. c #85C781",
"V. c #8ECF8A",
"C. c #97D794",
"Z. c #D6C4BA",
"A. c #ECC0A4",
"S. c #EEC4B0",
"D. c #F3CBB4",
"F. c #A4B3C9",
"G. c #ABB5CC",
"H. c #A9B9CF",
"J. c #B5B2C9",
"K. c #ADBBD1",
"L. c #B5BED4",
"P. c #DD9DC1",
"I. c #C5BDC2",
"U. c #B9C5D5",
"Y. c #C3C7D9",
"T. c #D2CDD0",
"R. c #D2CFD3",
"E. c #C7D0DE",
"W. c #EDC2D7",
"Q. c #CDD6E4",
"!. c #D9DDE8",
"~. c #E2D9E6",
"^. c #F2D8E4",
"/. c #DCE4ED",
"(. c #E7E4E8",
"). c #F4E8EF",
"_. c #EBEEF1",
"`. c #EEF1F4",
"'. c #F5F5F5",
/* pixels */
"C.B.B.B.B.B.V.V.V.V.V.V.B.&.%.%.%.&.&.&.B.B.B.V.C.C.C.C.C.C.C.C.",
"B.B.B.V.V.V.V.V.V.B.B.- # # ] &.&.: # # # ..V.V.C.C.C.C.C.C.C.V.",
"B.B.V.V.V.V.V.V.&.&.&.[ - = $ ] 1 2 .   ) B.V.C.C.C.C.C.C.V.B.B.",
"B.V.B.B.B.B.B.B.&.&.- & , % , & , & 2 0 ; # o.C.C.C.C.C.V.B.B.B.",
"B.B.B.&.&.&.&.&.o.5 3 0 i i e 7 y 4 i a q 0 > i.C.C.C.V.B.B.o.B.",
"&.&.&.&.o.&.&.o.o.; 0 ; 7 r.h.h.h.h.p.v = w % i.C.C.V.B.B.B.o.B.",
"o.&.o.o.&.&.o.o.o.# 1 C d.!.).m.m.^.!.I.y.9 . i.V.V.B.B.o.B.o.o.",
"&.o.o.o.&.o.o.o.&.1 C U._.'.).q.q.^.'.'.E.y.1 e.V.B.B.B.B.o.o.o.",
"o.o.o.&.&.&.o.o.&.s d.Q.)././.W.W.~./.`.!.K.j e.B.B.B.&.e.&.&.&.",
"o.o.&.&.&.o.o.&.x -.F.U./.~.P.m.m.P.~./.Y.K.w.x X.B.&.&.&.&.&.o.",
"o.o.&.&.&.o.&.&.s d.F.K.J.b.7.n.P.8.z.L.K.H.F.j | &.&.&.&.&.&.o.",
"o.&.&.&.&.&.&.B.s d.H.H.J.9.b.x.z.a.8.g.H.H.H.j | i.&.&.B.&.o.o.",
"o.&.&.&.&.&.B.B n M p.G.G.x.x.b.b.a.v.G.G.s.V v m $.B.B.&.&.&.&.",
"o.&.&.&.&.B.B.F L 6 z 3.a.0.8.c.n.8.0.a.a.z 6 J G %.B.B.B.&.&.o.",
"o.o.&.&.&.B.B.F ^ t 6 I ,.6.6.6.6.6.6.5.Y e q L G &.B.B.&.&.o.o.",
"o.&.&.&.B.B.B.m g y p Q a.A T R R R I 3./ v t g h $.B.&.&.o.o.o.",
"&.&.&.&.&.&.&.C.> u g l.T.k Q 2.2.1.e h.M.N a * ] &.&.&.X.X.o.o.",
"&.&.&.&.&.&.C.&.; = i u.Z.W l.S.D.N.W M.k.v 4 O } &.&.&.X.%.o.&.",
"&.&.&.C.&.C.&.&...& 0 f #.l.D.A.A.D.M.j.m w + ) %.&.%.%.o.o.o.&.",
"&.&.&.&.&.&.&.&.&.1 w % D H +.+.+.@.K J , 0 % } %.%.X.X.o.o.&.&.",
"&.&.C.&.B.B.&.o.&.5 t , f $ , b J w O f 3 0 = ] X.X.o.o.o.o.&.&.",
"&.&.&.&.B.&.B.O.H u h q X   4 1.a.M = < , h r D F $.o.o.o.o.&.&.",
"&.&.&.&.B.B.B.L k./ S O ' 1 k s.x.U f l e h ! k.~ $.o.o.o.&.&.&.",
"&.&.&.&.B.B.V.H @.D % ] c M M T.T.3.U I T l S +.H  .o.o.o.&.&.&.",
"&.&.&.&.&.&.C.&.- X | c *.w.t.(._.u.3.,.5.5.r @ _ X.o.o.&.&.&.&.",
"&.&.&.&.C.C.C.C.B.B.C.c *.>.K.Q.Q.Y.>.E ,.4.I _ X.o.o.&.&.&.&.&.",
"&.&.&.C.C.C.C.C.C.C.C.M d.;.:.:.:.:.=.<.R I P  .o.o.&.&.&.&.&.&.",
"C.C.&.C.C.C.C.C.V.V.V.M f.W 8 { e.7 V f.Q Z ` X.o.&.&.&.&.B.B.B.",
"&.C.C.C.C.&.C.&.C.&.&.&.9 d t $ # w d 4 ] $. .o.&.&.&.B.B.B.B.B.",
"C.&.C.C.&.C.&.&.&.&.&.&.- q a X   t p O ] o.&.&.&.B.B.B.B.B.V.V.",
"C.C.C.C.C.&.&.&.&.&.&.&.] $ X ( ' $ . ( &.&.&.B.B.B.B.B.V.V.V.V.",
"C.C.C.&.&.&.C.&.&.V.&.&.&.| [ o.o.' [ o.&.&.B.B.B.V.C.C.C.C.C.C."
};
