/* XPM */
static char *c1ca23278c4e4badb4cf7fed1618704f95iM8tj5OvurKvtF[] = {
/* columns rows colors chars-per-pixel */
"32 32 135 2 ",
"   c #4A4A33",
".  c #4F5638",
"X  c #465D3E",
"o  c #4A5D3D",
"O  c #5D5131",
"+  c #675430",
"@  c #6B5730",
"#  c #6A5932",
"$  c #7C5E30",
"%  c #395343",
"&  c #3C5A45",
"*  c #2E604E",
"=  c #396447",
"-  c #3D6E4C",
";  c #296957",
":  c #286E5C",
">  c #356652",
",  c #3D6955",
"<  c #346F5C",
"1  c #2B705F",
"2  c #3C7652",
"3  c #3E7B55",
"4  c #2D7362",
"5  c #317665",
"6  c #3B7665",
"7  c #327867",
"8  c #347B6A",
"9  c #3B7D6C",
"0  c #435F40",
"q  c #4E5C40",
"w  c #405E48",
"e  c #426545",
"r  c #42624B",
"t  c #4D664C",
"y  c #476C4D",
"u  c #42734F",
"i  c #416C56",
"p  c #4C7352",
"a  c #417D57",
"s  c #40705B",
"d  c #427F58",
"f  c #437E6D",
"g  c #78796B",
"h  c #39806F",
"j  c #3E8372",
"k  c #46815A",
"l  c #4B845C",
"z  c #45816E",
"x  c #518A60",
"c  c #569264",
"v  c #5C9565",
"b  c #5E9867",
"n  c #5E996A",
"m  c #438572",
"M  c #438877",
"N  c #458C7B",
"B  c #4A8D7D",
"V  c #639B6B",
"C  c #78867B",
"Z  c #7F897B",
"A  c #7AA573",
"S  c #7DB47B",
"D  c #7EB97A",
"F  c #838077",
"G  c #85857A",
"H  c #81AD7B",
"J  c #85B47E",
"K  c #82BE7E",
"L  c #82C07E",
"P  c #4B9180",
"I  c #579687",
"U  c #589A8B",
"Y  c #688E83",
"T  c #609C8F",
"R  c #5FA896",
"E  c #6DA498",
"W  c #66A898",
"Q  c #7EA69D",
"!  c #6EB1A1",
"~  c #8F928A",
"^  c #839E95",
"/  c #9E9E94",
"(  c #A09D96",
")  c #8AB784",
"_  c #86B881",
"`  c #8EBB8B",
"'  c #85A89F",
"]  c #9DA197",
"[  c #94A99E",
"{  c #85AAA4",
"}  c #89AEA6",
"|  c #8DAFA9",
" . c #97B6B0",
".. c #9DBBB6",
"X. c #9DBFB9",
"o. c #A8ADA7",
"O. c #B5B3AC",
"+. c #AAB5B0",
"@. c #AEB9B5",
"#. c #B7BEB7",
"$. c #85C781",
"%. c #89CA86",
"&. c #8ECF8A",
"*. c #94C58F",
"=. c #99CB96",
"-. c #97D794",
";. c #C0C5BD",
":. c #AEC7C2",
">. c #A5CAC1",
",. c #B0C6C4",
"<. c #BFC6C6",
"1. c #B6CBC8",
"2. c #BCCDCC",
"3. c #BFD1D0",
"4. c #C6C5C1",
"5. c #C5C9C4",
"6. c #CACFCC",
"7. c #C3D2D1",
"8. c #CAD5D5",
"9. c #CBD8D7",
"0. c #CCD7D8",
"q. c #CEDAD9",
"w. c #D1D3D1",
"e. c #D3DCDC",
"r. c #DADCDB",
"t. c #DCE3E3",
"y. c #E1E6E5",
"u. c #E3E8E7",
"i. c #E5E9E9",
"p. c #E9ECEC",
"a. c #EDEFEE",
"s. c #EFF0EF",
"d. c #EEEFF0",
"f. c #EFF0F0",
"g. c #F1F2F1",
/* pixels */
"-.$.$.$.$.$.&.&.&.&.&.&.$.L D D L L L L $.$.$.&.-.-.-.-.-.-.-.-.",
"$.$.$.&.&.&.&.&.&.$.$.L L K D L L L L L $.$.&.&.-.-.-.-.-.-.-.&.",
"$.$.&.&.&.&.&.&.L L L L D D D D K L L $.$.$.&.-.-.-.-.-.-.&.%.%.",
"$.&.$.$.$.$.$.$.L L L D D D D H J J $.$.$.%.&.-.-.-.-.-.&.%.L L ",
"$.$.$.L L L L L D D D D J H H ( O.] J S L &.-.-.-.-.-.&.L &.$.L ",
"L L L L D L L D D D D K ` G o.t.g.r./ G =.&.-.-.-.-.&.&.L L L $.",
"D L D D L L D D D L J ` 4.t.i.g.g.s.t.r.;.=.*.-.&.&.L L L L D D ",
"L D D D L D D D L K / @.u.g.g.g.g.a.p.s.r.+.] &.-.L L L L D D D ",
"D D D L L L D D K A 8.e.u.g.g.g.f.p.d.d.t.8.6.J L L &.$.$.$.L L ",
"D D L L L D D L K F 8.8.p.p.g.g.g.f.a.p.y.2.<.g L L L L $.$.L D ",
"D D L L L D L K H ;.p.q.e.e.i.s.p.a.t.e.8.3.t.#.L L L L L L L D ",
"D L L L L L L _ g w.p.y.e.8.0.t.e.e.8.7.7.9.u.5.L L L L $.L D D ",
"D L L L L L $.$.) #.e.t.s.u.2.7.7.2.1.r.t.7.,.[ D L $.$.L L L L ",
"D L L L L $.$.$.~ 8.1.t.f.u.e.t.u.e.2.t.i.2.T ' Z $.$.$.$.L L D ",
"D D L L L $.$.S ^ e.9.0.u.q.7.i.p.r.,.2.9.} I  .n D $.$.L L D D ",
"D L L L $.$.$.C { Q 2.q.7.2.3.9.q.3.>.| X.W N h 8 , $.L L D D D ",
"L L L L L L L ~ :.m { t.8.:.t.q.2.>.! T E U 7 4 j , L L D D D D ",
"L L L -.&.L &.v Y 9 P ..E I >.7.X.W R j 4 7 4 7 < p L L D D D L ",
"L L L L L -.&.$.% 9 9 7 : 7 P I M P P 7 : 4 B 9 y L D D D D D L ",
"L L L L L L L L t f M 5 j 9 4 7 9 7 4 8 m 4 M f D D D D D D L L ",
"L L L -.L &.L L Q - 2 1 B P 9 j P M 5 P M ; < i D D D D D D L L ",
"L L L L L L L L L y = > z m > 6 M 7 * 9 6 * = p L D D D D D L L ",
"L L L L L %.L &.$.k 3 - & q   w s w   q % 2 2 x D D D D D L L L ",
"L L L L %.L &.&.-.k a k 0 O O + # + O O r 3 a x D D D D D L L L ",
"L L L L L L -.-.&.V x k - e o @ $ # X e u 3 k n D D D D L L L L ",
"L L L L -.-.-.-.-.-.n d 3 d 2 0 . X 2 d k l v D D D D L L L L L ",
"L L L -.-.-.-.-.-.-.&.V c l d 2 2 3 d l c b D D D D L L L L L $.",
"-.L -.-.-.L -.-.&.&.&.$.$.V b v c c V V D D D D D L L L L $.$.$.",
"-.L -.-.-.-.L -.&.$.$.$.$.L L L D D D D D D D D L L L $.$.$.$.$.",
"L -.-.-.L -.L L $.$.$.L L L L D D D D D D D L L L $.$.$.$.$.&.&.",
"-.-.-.-.-.L L L L L L L L L L D D D D D L L L $.$.$.$.$.&.&.&.&.",
"-.-.L -.L L L L $.$.$.$.$.$.L D D D L L L L $.$.$.&.-.-.-.-.-.-."
};
